<?xml version="1.0" standalone="no"?>
<!DOCTYPE svg PUBLIC "-//W3C//DTD SVG 20010904//EN"
 "http://www.w3.org/TR/2001/REC-SVG-20010904/DTD/svg10.dtd">
<svg version="1.0" xmlns="http://www.w3.org/2000/svg"
 width="672.000000pt" height="703.000000pt" viewBox="0 0 672.000000 703.000000"
 preserveAspectRatio="xMidYMid meet">

<g transform="translate(0.000000,703.000000) scale(0.100000,-0.100000)"
fill="#000000" stroke="none">
<path d="M5268 6923 c7 -3 16 -2 19 1 4 3 -2 6 -13 5 -11 0 -14 -3 -6 -6z"/>
<path d="M5208 6913 c6 -2 18 -2 25 0 6 3 1 5 -13 5 -14 0 -19 -2 -12 -5z"/>
<path d="M5158 6903 c6 -2 18 -2 25 0 6 3 1 5 -13 5 -14 0 -19 -2 -12 -5z"/>
<path d="M5118 6893 c7 -3 16 -2 19 1 4 3 -2 6 -13 5 -11 0 -14 -3 -6 -6z"/>
<path d="M3540 6580 c-20 -6 -21 -8 -5 -8 11 0 31 4 45 8 20 6 21 8 5 8 -11 0
-31 -4 -45 -8z"/>
<path d="M3478 6563 c6 -2 18 -2 25 0 6 3 1 5 -13 5 -14 0 -19 -2 -12 -5z"/>
<path d="M3438 6553 c7 -3 16 -2 19 1 4 3 -2 6 -13 5 -11 0 -14 -3 -6 -6z"/>
<path d="M3388 6543 c7 -3 16 -2 19 1 4 3 -2 6 -13 5 -11 0 -14 -3 -6 -6z"/>
<path d="M3053 6523 c9 -2 25 -2 35 0 9 3 1 5 -18 5 -19 0 -27 -2 -17 -5z"/>
<path d="M2890 6510 l-35 -7 35 -1 c19 0 60 3 90 8 l55 7 -55 0 c-30 0 -71 -3
-90 -7z"/>
<path d="M3186 6491 c72 -28 107 -47 199 -106 84 -55 275 -239 331 -320 89
-130 131 -196 188 -300 36 -66 66 -116 66 -111 0 21 -96 197 -158 291 -37 55
-69 105 -72 112 -10 22 -176 199 -241 256 -98 87 -205 154 -289 182 -100 33
-112 31 -24 -4z"/>
<path d="M2828 6493 c7 -3 16 -2 19 1 4 3 -2 6 -13 5 -11 0 -14 -3 -6 -6z"/>
<path d="M2763 6483 c9 -2 23 -2 30 0 6 3 -1 5 -18 5 -16 0 -22 -2 -12 -5z"/>
<path d="M2597 6460 c-48 -10 -100 -23 -115 -29 -26 -11 -26 -11 7 -6 18 3 74
10 125 17 50 6 93 15 96 18 3 4 12 10 20 13 32 12 -50 4 -133 -13z"/>
<path d="M2565 6395 c-60 -14 -265 -56 -455 -95 -312 -64 -379 -80 -340 -80 7
0 217 41 467 91 371 74 465 89 511 85 55 -6 56 -6 27 9 -41 20 -82 18 -210
-10z"/>
<path d="M2875 6355 c39 -19 79 -40 90 -47 69 -45 126 -77 121 -69 -11 16
-140 99 -197 126 -82 38 -94 29 -14 -10z"/>
<path d="M3017 6349 c7 -7 15 -10 18 -7 3 3 -2 9 -12 12 -14 6 -15 5 -6 -5z"/>
<path d="M3050 6332 c0 -4 10 -13 23 -21 22 -14 22 -14 3 8 -20 22 -26 25 -26
13z"/>
<path d="M3180 6230 c183 -172 215 -208 340 -385 35 -49 68 -94 73 -100 24
-25 -24 51 -103 165 -86 123 -210 255 -310 329 l-45 33 45 -42z"/>
<path d="M1305 6229 c-25 -4 -11 -5 40 -2 44 3 82 7 84 9 7 7 -81 2 -124 -7z"/>
<path d="M1228 6213 c6 -2 18 -2 25 0 6 3 1 5 -13 5 -14 0 -19 -2 -12 -5z"/>
<path d="M3220 6111 c63 -60 129 -127 145 -150 17 -23 46 -63 65 -89 77 -103
167 -281 221 -439 32 -91 48 -127 54 -121 7 7 -22 101 -60 193 -71 175 -160
324 -279 468 -79 96 -234 247 -253 247 -4 0 44 -49 107 -109z"/>
<path d="M942 6155 c-59 -19 -151 -63 -187 -89 -16 -13 -62 -39 -101 -60 -39
-20 -94 -58 -121 -84 -27 -26 -40 -40 -29 -31 38 29 111 76 159 104 82 45 127
57 217 58 75 0 78 1 30 6 -45 5 -50 7 -30 13 124 37 415 -58 595 -194 95 -71
239 -213 231 -227 -4 -6 -1 -11 7 -11 7 0 29 -21 47 -47 19 -27 60 -80 92
-120 32 -39 58 -74 58 -76 0 -3 24 -47 54 -99 85 -148 195 -437 245 -648 13
-52 27 -110 33 -128 12 -42 27 -133 38 -242 5 -47 14 -114 19 -150 6 -36 11
-91 11 -122 0 -47 -4 -59 -20 -68 -26 -14 -40 -5 -38 23 2 36 -13 229 -21 272
-5 22 -6 -30 -3 -115 2 -85 0 -165 -5 -178 l-9 -23 -74 37 c-77 37 -445 222
-535 268 -146 75 -379 186 -383 182 -2 -3 29 -21 69 -42 238 -119 535 -273
601 -310 43 -24 97 -52 120 -62 24 -10 80 -36 125 -58 95 -45 89 -31 97 -243
3 -68 8 -126 11 -130 4 -3 5 70 4 162 -3 177 0 186 42 187 22 0 25 -35 29
-260 1 -96 4 -200 6 -230 2 -30 4 -93 5 -140 3 -81 3 -80 8 35 3 66 4 226 1
355 -3 129 -4 237 -3 239 1 2 23 -5 50 -15 26 -10 57 -17 68 -16 32 5 519 170
624 212 53 21 184 66 291 100 258 82 598 198 825 280 168 61 460 157 515 170
30 7 65 16 77 21 19 7 22 5 20 -11 -2 -11 -14 -31 -27 -45 -13 -14 -25 -31
-26 -38 -8 -38 -48 -136 -54 -132 -4 3 -18 -3 -31 -13 -13 -10 -43 -26 -66
-36 -38 -17 -41 -20 -26 -31 14 -11 22 -10 42 6 21 17 26 18 33 5 12 -21 12
-142 -1 -211 -10 -56 -26 -156 -50 -303 -7 -46 -17 -71 -35 -89 -26 -26 -26
-43 0 -43 18 0 18 2 -5 -138 -11 -64 -24 -144 -29 -177 -15 -89 -28 -132 -48
-163 -11 -15 -20 -45 -21 -67 -4 -91 -21 -122 -94 -178 -26 -20 -27 -20 51 8
24 9 39 10 48 3 19 -16 14 -56 -8 -68 -11 -6 -20 -19 -20 -29 0 -11 -7 -21
-15 -25 -8 -3 -15 -11 -15 -17 0 -9 3 -9 14 0 7 6 21 8 31 5 10 -4 21 -1 26 7
16 25 10 -84 -6 -115 -18 -34 -12 -62 17 -77 26 -14 65 12 91 62 14 28 17 29
13 9 -16 -84 -30 -122 -50 -138 -13 -10 -27 -29 -31 -42 -9 -31 -34 -60 -51
-60 -8 0 -16 -11 -20 -24 -3 -13 -19 -33 -36 -46 l-30 -22 7 23 c6 23 6 23 -9
5 -9 -11 -16 -30 -16 -43 0 -13 -7 -40 -15 -60 -27 -64 -16 -124 30 -168 23
-21 25 -26 13 -44 -7 -12 -21 -21 -30 -21 -48 0 0 -41 99 -85 34 -15 70 -36
79 -46 23 -25 24 -25 57 16 l28 35 -28 30 c-15 17 -36 30 -46 30 -37 0 -167
88 -167 113 0 6 11 0 25 -13 27 -25 46 -22 20 3 -8 9 -15 22 -15 29 0 8 3 9 8
3 4 -5 14 -10 22 -10 11 0 14 -9 12 -32 -2 -20 1 -33 8 -33 7 0 9 8 5 20 -5
15 2 28 22 48 15 15 34 36 41 47 9 14 14 16 18 8 9 -20 24 -15 46 13 11 14 38
37 60 50 22 14 37 28 35 31 -7 6 -64 -32 -96 -64 -32 -33 -51 -15 -26 24 10
15 24 32 32 36 22 13 15 34 -16 47 -16 6 -32 18 -35 26 -8 21 -35 7 -89 -45
-26 -25 -45 -38 -41 -28 5 14 2 16 -12 10 -39 -14 29 54 86 87 112 64 165 118
195 200 9 25 22 56 30 70 7 14 16 40 20 59 8 39 85 120 113 119 9 0 26 3 37 7
12 4 15 3 8 -2 -8 -6 -6 -15 8 -32 14 -17 32 -24 67 -27 45 -4 44 -1 -5 17
-20 7 -20 10 -7 49 22 64 29 109 28 184 0 42 -5 71 -12 74 -7 2 -2 18 13 43
15 23 25 53 25 76 0 45 -22 140 -38 168 -17 29 -15 3 4 -52 11 -33 15 -67 11
-110 -8 -101 -72 -164 -167 -163 -24 1 -24 1 -6 15 10 8 23 12 27 9 5 -3 9 0
9 5 0 6 7 11 15 11 8 0 15 5 15 10 0 6 6 10 13 10 7 0 23 22 36 50 19 40 22
58 17 97 -8 54 -65 182 -82 183 -6 0 -21 9 -34 20 -13 11 -26 20 -29 21 -63 6
-72 5 -81 -10 -8 -13 -9 -11 -10 12 0 28 6 31 50 27 63 -6 76 -8 92 -14 15 -7
16 -1 11 51 -4 45 -11 63 -29 80 -22 20 -24 29 -20 75 l5 53 -15 -62 c-19 -75
-38 -84 -30 -15 l6 47 -14 -40 c-7 -22 -25 -67 -39 -100 -32 -76 -98 -416 -97
-495 1 -14 1 -39 1 -56 0 -18 -17 -62 -38 -100 -37 -68 -38 -69 -41 -36 -2 18
-10 36 -18 39 -24 9 -14 139 26 348 17 89 36 203 70 420 46 291 99 579 123
665 14 51 81 184 110 220 18 22 39 88 32 100 -3 5 1 10 11 10 17 0 17 -8 -2
-85 -7 -27 -6 -29 9 -16 10 7 17 28 17 45 0 17 4 37 9 45 14 22 1 53 -20 48
-13 -4 -18 0 -16 13 3 27 -17 25 -24 -2 -5 -21 -7 -19 -17 14 -5 21 -20 50
-32 65 -20 26 -20 28 -4 40 9 7 42 19 73 28 31 9 70 22 86 31 l30 15 -35 -6
c-74 -11 -176 -48 -205 -75 -16 -14 -41 -27 -54 -28 -13 0 -28 -5 -33 -10 -5
-5 19 -4 53 1 59 10 63 9 81 -12 10 -13 18 -36 18 -52 0 -25 -5 -30 -42 -40
-24 -6 -51 -15 -60 -20 -49 -25 -76 4 -66 71 3 17 1 27 -4 22 -5 -5 -11 -25
-15 -45 -4 -30 -1 -40 22 -62 23 -24 32 -26 66 -21 39 6 56 -8 24 -20 -21 -9
-19 -23 6 -32 21 -8 21 -8 -3 -24 -14 -9 -90 -37 -169 -63 -307 -100 -673
-226 -706 -243 -10 -6 -119 -43 -243 -82 -273 -87 -977 -320 -1005 -332 -73
-31 -193 -64 -215 -58 -23 5 -25 10 -23 53 3 53 -14 65 -19 15 -3 -33 -22 -45
-44 -30 -7 4 -15 55 -19 122 -4 63 -8 117 -10 120 -2 3 -6 39 -10 80 -3 41 -9
83 -12 94 -3 10 -9 41 -13 70 -4 28 -20 96 -34 151 -16 63 -22 101 -15 104 6
2 5 9 -4 20 -8 9 -17 25 -20 36 -2 11 -24 72 -47 135 -22 63 -51 142 -62 175
-31 86 -137 290 -202 387 -121 182 -264 343 -385 434 -172 130 -411 227 -563
227 -75 1 -79 8 -14 27 60 16 177 0 295 -42 103 -36 147 -58 213 -105 27 -20
61 -37 75 -39 31 -3 28 0 -65 61 -91 59 -273 132 -352 141 -33 4 -60 11 -60
15 0 13 -48 9 -98 -6z m3883 -1385 c-3 -5 -11 -10 -16 -10 -6 0 -7 5 -4 10 3
6 11 10 16 10 6 0 7 -4 4 -10z m-24 -1365 c-14 -100 -18 -115 -36 -115 -11 0
-11 8 -4 32 5 18 14 60 20 93 23 131 37 124 20 -10z m85 -4 c10 -31 16 -60 15
-66 -2 -5 -4 -14 -6 -20 -7 -31 -23 -54 -60 -87 -48 -42 -139 -174 -190 -274
-19 -38 -39 -73 -43 -79 -4 -5 -11 -18 -15 -27 -7 -18 -42 -25 -51 -10 -3 5
-2 18 1 31 4 16 11 20 24 16 21 -7 25 5 8 22 -12 12 -3 37 10 29 4 -3 8 0 8 7
0 14 58 111 126 210 26 38 47 70 47 72 0 14 70 73 93 79 40 10 33 26 -10 19
l-36 -6 7 44 c4 24 10 63 13 87 5 41 7 42 24 26 10 -9 26 -42 35 -73z m-185
-157 c-37 -31 -49 -30 -43 1 4 26 21 35 23 13 0 -7 5 -2 10 11 7 19 12 21 24
11 12 -10 10 -15 -14 -36z m250 -91 c3 -37 -2 -100 -12 -146 -12 -50 -10 -49
-91 -62 -36 -6 -37 -5 -29 17 4 12 4 39 0 60 -10 42 3 88 24 88 7 0 31 13 53
30 46 34 54 36 55 13z m-165 -39 c-59 -154 -110 -233 -134 -209 -8 7 61 146
96 193 26 34 49 44 38 16z m20 -117 c-3 -12 -5 -30 -5 -39 -1 -18 -63 -88 -77
-88 -4 0 -3 5 4 12 7 7 12 19 12 28 0 27 49 122 60 115 5 -3 8 -16 6 -28z
m-271 -23 c6 -37 -9 -94 -26 -94 -13 0 -11 18 2 26 7 4 9 24 5 55 -8 57 8 67
19 13z m-41 -50 c8 -22 9 -22 -21 -21 -16 0 -22 2 -15 4 6 3 12 11 12 19 0 19
16 18 24 -2z m213 -76 c-3 -8 -6 -5 -6 6 -1 11 2 17 5 13 3 -3 4 -12 1 -19z
m-52 -35 c-9 -49 -24 -77 -25 -47 0 37 12 84 22 84 6 0 7 -15 3 -37z m-93 -18
c3 -3 -2 -21 -10 -40 -12 -25 -23 -35 -39 -35 -27 0 -29 10 -8 50 14 27 43 39
57 25z m8 -405 c0 -5 -7 -10 -16 -10 -8 0 -12 5 -9 10 3 6 10 10 16 10 5 0 9
-4 9 -10z m-172 -39 c19 -11 5 -63 -16 -59 -9 2 -15 6 -14 11 1 4 2 18 2 32 0
26 6 30 28 16z m112 -281 c0 -5 -5 -10 -11 -10 -5 0 -7 5 -4 10 3 6 8 10 11
10 2 0 4 -4 4 -10z m60 -9 c0 -6 -4 -13 -10 -16 -5 -3 -10 -11 -10 -18 0 -6 6
-2 14 9 8 10 18 15 22 11 9 -9 -14 -34 -36 -39 -22 -4 -24 3 -9 35 12 26 29
37 29 18z"/>
<path d="M1590 6160 c14 -4 32 -8 40 -9 13 -1 13 0 0 9 -8 5 -26 9 -40 9 l-25
-1 25 -8z"/>
<path d="M1537 6143 c-10 -9 -9 -41 1 -47 4 -2 9 9 10 25 2 30 0 34 -11 22z"/>
<path d="M1681 6110 c14 -31 19 -36 19 -24 0 6 -7 19 -16 30 -14 18 -14 18 -3
-6z"/>
<path d="M1662 6054 c-13 -9 -31 -13 -43 -9 -13 5 -19 3 -15 -3 12 -19 45 -20
65 0 33 30 29 37 -7 12z"/>
<path d="M1840 6035 c19 -19 36 -35 39 -35 3 0 -10 16 -29 35 -19 19 -36 35
-39 35 -3 0 10 -16 29 -35z"/>
<path d="M1014 6039 c27 -4 62 -13 78 -20 16 -6 31 -9 34 -6 9 9 -88 37 -125
36 -33 -1 -31 -2 13 -10z"/>
<path d="M1210 5973 c185 -89 409 -276 507 -425 12 -18 43 -64 69 -103 58 -86
197 -346 214 -400 7 -22 21 -56 30 -75 28 -56 95 -264 131 -408 18 -73 35
-128 37 -122 2 6 -6 52 -18 103 -93 383 -223 704 -374 917 -36 52 -77 112 -91
133 -37 55 -159 181 -192 197 -15 8 -59 37 -98 65 -94 68 -183 122 -235 140
-67 24 -61 17 20 -22z"/>
<path d="M4670 5967 c-48 -24 -65 -78 -65 -214 0 -108 -2 -122 -17 -127 -11
-2 -18 -14 -18 -30 0 -15 -8 -30 -19 -35 -29 -16 -51 -84 -51 -156 0 -85 44
-181 88 -191 15 -3 33 -8 41 -10 21 -7 41 15 41 45 0 26 16 51 32 51 12 0 9
-95 -3 -107 -6 -6 -18 -9 -25 -6 -16 6 -19 -22 -4 -32 6 -3 10 -1 10 4 0 6 6
11 14 11 14 0 27 -72 16 -90 -7 -11 -90 -56 -116 -63 -16 -4 -16 -5 3 -6 37
-2 132 39 144 62 15 27 6 231 -11 252 -9 11 -17 12 -31 5 -15 -8 -17 -7 -13 5
4 8 2 15 -3 15 -13 0 -45 -64 -46 -94 -2 -30 -2 -29 -28 -16 -10 6 -19 18 -20
28 0 10 -3 12 -6 5 -16 -40 -53 30 -60 114 -3 37 1 63 15 95 20 46 77 108 99
108 21 0 15 -15 -22 -54 -50 -53 -43 -68 8 -18 23 23 49 42 56 42 8 0 11 6 7
16 -3 9 -6 19 -6 24 0 4 -14 10 -31 14 l-32 6 6 118 c4 64 11 132 16 151 12
39 38 71 58 71 7 0 13 5 13 10 0 13 -10 12 -40 -3z"/>
<path d="M401 5793 c-62 -70 -145 -229 -161 -310 -6 -32 -20 -94 -30 -138 -23
-99 -30 -158 -20 -174 4 -7 10 15 13 48 8 75 49 256 76 334 29 82 75 166 132
236 27 34 47 61 45 61 -2 0 -27 -26 -55 -57z"/>
<path d="M820 5840 c-72 -13 -217 -97 -280 -161 -110 -113 -170 -285 -170
-489 0 -59 -4 -100 -12 -108 -8 -8 -8 -15 2 -27 12 -14 16 -14 24 -3 6 7 24
13 39 13 l29 0 3 140 c5 232 57 387 165 495 83 82 148 114 235 115 78 0 179
-21 196 -42 6 -7 20 -13 30 -13 10 0 52 -18 94 -40 42 -22 74 -36 70 -30 -12
19 -173 99 -261 129 -97 33 -96 33 -164 21z m-248 -170 c-87 -115 -132 -267
-135 -450 -1 -75 -4 -99 -18 -114 -26 -28 -35 -14 -33 56 6 188 28 292 85 399
29 54 117 159 133 159 3 0 -11 -22 -32 -50z"/>
<path d="M1630 5846 c0 -2 8 -10 18 -17 15 -13 16 -12 3 4 -13 16 -21 21 -21
13z"/>
<path d="M2040 5836 c0 -4 29 -46 65 -92 88 -114 162 -227 196 -299 27 -57 89
-157 89 -144 0 4 -23 55 -51 115 -46 97 -110 203 -185 306 -31 43 -114 126
-114 114z"/>
<path d="M1740 5752 c6 -12 30 -44 53 -71 102 -119 192 -253 284 -426 30 -55
51 -89 47 -75 -12 44 -96 212 -128 254 -17 23 -58 81 -91 130 -59 87 -186 233
-165 188z"/>
<path d="M4990 5729 c0 -17 26 -57 33 -49 2 3 -4 19 -14 35 -11 17 -19 23 -19
14z"/>
<path d="M5050 5690 c-12 -8 -11 -10 7 -10 12 0 25 5 28 10 8 13 -15 13 -35 0z"/>
<path d="M1295 5650 c136 -115 292 -287 341 -375 154 -283 239 -512 293 -797
11 -59 22 -113 23 -120 2 -7 7 -16 13 -20 5 -4 6 -10 2 -14 -3 -4 -30 5 -59
20 -97 50 -258 125 -258 121 0 -3 66 -38 148 -79 187 -95 179 -90 159 -110
-15 -15 -20 -15 -68 9 -72 37 -71 26 1 -14 33 -18 60 -28 60 -23 0 5 8 9 17 8
14 -1 16 8 14 59 -7 208 -100 575 -182 721 -16 28 -29 56 -29 62 0 15 71 -12
87 -34 12 -17 13 -17 13 2 0 10 9 25 21 32 18 12 20 19 14 60 -11 73 -39 130
-69 138 -56 14 -96 -46 -84 -126 8 -54 -10 -35 -79 85 -75 129 -280 345 -388
410 -22 14 -20 10 10 -15z m523 -402 c7 -7 12 -24 12 -39 0 -15 5 -31 10 -34
13 -8 13 -45 0 -45 -5 0 -12 11 -16 25 -3 14 -10 23 -14 20 -5 -3 -14 11 -20
30 -16 47 0 71 28 43z m69 -100 c-3 -7 -5 -2 -5 12 0 14 2 19 5 13 2 -7 2 -19
0 -25z"/>
<path d="M3802 5621 c-15 -43 22 -115 61 -119 16 -2 27 1 27 9 0 6 -8 9 -19 6
-12 -3 -27 3 -36 13 -22 24 -31 86 -15 105 7 9 8 15 2 15 -5 0 -15 -13 -20
-29z"/>
<path d="M3880 5631 c0 -5 7 -15 17 -22 15 -13 15 -12 4 9 -12 23 -21 28 -21
13z"/>
<path d="M1074 5586 c-18 -8 -41 -32 -56 -57 -43 -75 -88 -242 -68 -254 4 -3
11 17 15 43 7 52 60 211 74 225 18 18 49 -4 86 -59 43 -65 104 -219 114 -284
l6 -45 45 -3 c29 -2 57 -12 77 -28 38 -29 44 -18 10 15 -13 12 -43 25 -66 29
l-42 7 -38 115 c-34 105 -70 183 -116 253 -21 32 -2 47 27 20 52 -46 141 -223
155 -306 6 -39 23 -62 23 -31 0 31 -48 178 -75 229 -43 82 -77 125 -96 125
-11 0 -19 5 -19 10 0 13 -19 12 -56 -4z"/>
<path d="M4874 5562 c-12 -10 -25 -36 -28 -58 -6 -33 -3 -44 22 -71 26 -31 72
-45 72 -23 0 6 -6 10 -14 10 -19 0 -46 39 -46 66 0 25 35 60 45 45 9 -16 35
-14 35 2 0 18 -32 47 -51 47 -8 -1 -24 -9 -35 -18z"/>
<path d="M4010 5519 c0 -3 14 -48 31 -100 31 -96 37 -122 63 -246 17 -82 39
-233 40 -280 1 -18 6 -32 11 -30 12 3 9 48 -17 207 -12 69 -21 142 -22 163 0
20 -4 37 -8 37 -4 0 -23 51 -43 113 -31 97 -54 156 -55 136z"/>
<path d="M5066 5472 c-3 -5 -1 -22 4 -38 l8 -29 1 28 c1 23 5 27 30 27 19 0
35 -8 45 -22 9 -12 18 -19 21 -16 4 3 -5 18 -18 32 -24 26 -79 36 -91 18z"/>
<path d="M6667 5366 c-3 -8 1 -17 10 -20 20 -8 25 -3 17 18 -8 20 -20 21 -27
2z"/>
<path d="M819 5281 c-28 -28 -34 -52 -29 -111 1 -14 6 -32 11 -40 7 -10 8 3 3
38 -5 46 -3 58 20 92 17 26 35 40 53 43 l28 4 -28 2 c-20 1 -38 -8 -58 -28z"/>
<path d="M3711 5290 c-1 -8 6 -42 13 -75 22 -97 45 -253 50 -353 5 -81 3 -95
-13 -108 -24 -21 -91 -44 -291 -100 -91 -25 -199 -58 -240 -74 -41 -15 -113
-40 -160 -55 -46 -15 -92 -31 -101 -35 -28 -15 -283 -79 -292 -73 -5 3 -7 21
-4 39 3 20 2 32 -3 29 -5 -3 -12 7 -16 22 -13 59 -64 226 -60 198 5 -38 52
-250 64 -290 6 -22 14 -29 28 -27 28 5 281 81 344 104 63 23 138 48 160 53 32
8 148 44 205 63 197 68 350 113 367 109 10 -3 18 0 18 8 0 7 7 15 15 19 12 4
13 11 5 31 -6 15 -10 56 -10 93 0 94 -37 333 -60 390 -10 26 -19 40 -19 32z"/>
<path d="M2250 5279 c0 -5 5 -7 10 -4 6 3 10 8 10 11 0 2 -4 4 -10 4 -5 0 -10
-5 -10 -11z"/>
<path d="M5440 5280 c-18 -12 -2 -12 25 0 13 6 15 9 5 9 -8 0 -22 -4 -30 -9z"/>
<path d="M3771 5254 c0 -11 3 -14 6 -6 3 7 2 16 -1 19 -3 4 -6 -2 -5 -13z"/>
<path d="M5230 5228 c-58 -18 -109 -38 -113 -45 -4 -7 -15 -13 -22 -13 -8 0
-15 -5 -15 -11 0 -14 36 -5 110 26 30 13 81 33 113 45 31 12 57 24 57 26 0 8
-28 2 -130 -28z"/>
<path d="M4782 5170 l1 -85 8 68 c6 43 5 75 -1 85 -6 12 -9 -8 -8 -68z"/>
<path d="M2421 5215 c0 -11 11 -42 24 -70 14 -27 25 -58 25 -67 0 -9 5 -20 10
-23 17 -11 10 18 -25 100 -19 44 -34 71 -34 60z"/>
<path d="M1049 5186 c-10 -22 -10 -37 0 -74 15 -56 24 -68 57 -76 52 -13 69
36 38 109 -17 42 -30 43 -14 1 12 -33 12 -47 1 -65 -15 -24 -51 23 -51 67 0
20 -4 44 -9 51 -8 12 -12 9 -22 -13z"/>
<path d="M2351 5170 c-9 -26 -15 -31 -38 -29 -16 2 -36 10 -45 18 -16 13 -18
12 -18 -6 0 -30 22 -44 60 -37 25 5 36 15 47 42 8 19 12 36 10 39 -3 2 -10
-10 -16 -27z"/>
<path d="M1400 5170 c14 -11 28 -20 31 -20 12 0 52 -85 65 -138 20 -84 18
-117 -11 -149 l-24 -28 -1 42 c0 57 -20 67 -21 11 l-1 -43 -19 41 c-26 56 -62
80 -99 64 -45 -19 -53 -53 -46 -192 10 -195 3 -176 82 -216 167 -85 304 -151
304 -147 0 3 -48 30 -107 60 -60 30 -115 59 -123 65 -8 5 -39 19 -68 31 -34
14 -51 27 -48 35 3 7 0 14 -6 16 -18 6 -17 290 1 311 23 29 34 20 28 -25 -5
-36 5 -188 16 -262 2 -11 13 -23 25 -27 21 -8 21 -7 6 16 -19 29 -34 285 -17
285 16 0 30 -21 43 -66 12 -41 13 -41 39 -28 14 7 34 15 43 18 27 8 38 69 28
154 -13 117 -38 164 -102 198 -38 20 -47 17 -18 -6z"/>
<path d="M841 5134 c-25 -31 -27 -64 -6 -64 30 0 75 29 69 45 -4 8 -2 15 4 15
21 0 48 -127 56 -260 2 -41 8 -84 12 -95 18 -45 23 41 9 153 -22 174 -46 232
-95 232 -19 0 -36 -9 -49 -26z m49 2 c0 -16 -26 -46 -41 -46 -17 0 -9 28 14
43 28 20 27 20 27 3z"/>
<path d="M1429 5003 c15 -63 16 -65 19 -31 3 30 -19 98 -32 98 -2 0 4 -30 13
-67z"/>
<path d="M1967 5022 c3 -12 9 -25 14 -28 14 -8 11 10 -6 32 -13 18 -14 18 -8
-4z"/>
<path d="M3822 5000 c0 -14 2 -19 5 -12 2 6 2 18 0 25 -3 6 -5 1 -5 -13z"/>
<path d="M5146 4980 c-4 -23 -17 -52 -30 -65 -45 -45 -63 -184 -34 -258 10
-26 6 -116 -8 -151 -3 -9 -2 -16 3 -16 13 0 41 67 33 77 -11 11 -22 192 -13
206 4 7 8 17 8 22 3 37 29 97 51 114 13 11 21 22 16 25 -5 3 -7 16 -5 30 3 13
1 32 -5 41 -7 14 -10 9 -16 -25z"/>
<path d="M2508 4968 c-2 -12 6 -44 19 -70 13 -26 23 -60 23 -75 0 -15 7 -37
15 -47 21 -28 19 -9 -14 105 -33 111 -38 122 -43 87z"/>
<path d="M180 4951 c0 -17 5 -31 10 -31 6 0 10 11 10 24 0 14 -4 28 -10 31 -6
4 -10 -7 -10 -24z"/>
<path d="M3833 4935 c0 -22 2 -30 4 -17 2 12 2 30 0 40 -3 9 -5 -1 -4 -23z"/>
<path d="M4585 4950 c-13 -6 -15 -9 -5 -9 8 0 22 4 30 9 18 12 2 12 -25 0z"/>
<path d="M2220 4913 c0 -4 5 -15 10 -23 8 -13 10 -13 10 2 0 9 -4 20 -10 23
-5 3 -10 3 -10 -2z"/>
<path d="M5450 4910 c-8 -5 -10 -10 -5 -10 6 0 17 5 25 10 8 5 11 10 5 10 -5
0 -17 -5 -25 -10z"/>
<path d="M4230 4900 c-18 -12 -2 -12 25 0 13 6 15 9 5 9 -8 0 -22 -4 -30 -9z"/>
<path d="M4408 4883 c7 -3 16 -2 19 1 4 3 -2 6 -13 5 -11 0 -14 -3 -6 -6z"/>
<path d="M3842 4850 c0 -19 2 -27 5 -17 2 9 2 25 0 35 -3 9 -5 1 -5 -18z"/>
<path d="M4280 4851 c-72 -24 -129 -50 -110 -51 16 0 168 55 178 64 9 10 -10
6 -68 -13z"/>
<path d="M2595 4850 l-20 -9 20 0 c11 0 27 4 35 9 13 9 13 10 0 9 -8 0 -24 -4
-35 -9z"/>
<path d="M2265 4755 c2 -27 14 -84 25 -125 25 -87 36 -137 50 -238 10 -77 29
-130 29 -82 0 23 -8 72 -44 250 -7 36 -21 87 -31 114 -15 37 -16 50 -6 53 17
6 15 24 -8 53 l-19 25 4 -50z"/>
<path d="M415 4675 c-27 -26 -32 -64 -13 -83 19 -19 30 -14 16 7 -9 15 -7 24
10 49 l22 30 63 -25 c34 -13 74 -33 87 -44 22 -17 23 -20 9 -29 -9 -5 -22 -23
-29 -40 -9 -22 -16 -28 -23 -21 -6 6 -18 11 -26 11 -24 0 38 -39 80 -50 38
-11 56 -41 43 -74 -5 -14 -28 -5 -132 50 -69 36 -120 59 -114 51 7 -8 62 -38
122 -68 74 -35 110 -58 110 -69 0 -55 -153 -159 -237 -161 -21 -1 -49 -5 -63
-10 -16 -5 6 -7 65 -5 50 2 98 7 108 11 9 4 17 4 17 0 0 -20 -37 -35 -131 -55
-143 -30 -190 -46 -234 -82 -36 -31 -37 -33 -33 -87 4 -45 10 -59 31 -74 l25
-19 -26 -39 c-15 -21 -30 -38 -34 -39 -7 0 -23 27 -58 100 -22 47 -20 80 6
133 17 32 0 38 -17 6 -38 -73 -29 -135 32 -215 21 -28 39 -58 39 -66 0 -9 7
-18 14 -21 10 -4 13 -1 10 8 -7 17 52 92 78 100 10 4 18 11 18 17 0 6 -3 9 -6
6 -7 -8 -48 31 -62 59 -44 83 35 146 220 174 153 24 177 31 235 68 32 20 71
55 87 77 16 21 36 45 44 51 22 18 23 119 1 163 -31 62 -153 161 -256 206 -66
30 -68 30 -98 -1z m221 -124 c-9 -10 -16 -23 -16 -29 0 -7 -4 -12 -10 -12 -5
0 -10 6 -10 13 0 20 30 58 41 51 6 -4 4 -13 -5 -23z m52 -27 c38 -27 56 -75
53 -143 -1 -23 -2 -23 -20 -7 -10 10 -24 37 -30 61 -6 24 -21 51 -32 59 -13 9
-19 21 -16 30 8 20 17 20 45 0z"/>
<path d="M3973 4662 c-14 -9 -33 -57 -32 -80 0 -9 5 -1 11 18 5 19 17 43 25
53 17 18 16 22 -4 9z"/>
<path d="M1436 4571 c11 -12 84 -43 84 -36 0 5 -76 45 -87 45 -4 0 -3 -4 3 -9z"/>
<path d="M3950 4540 c6 -11 16 -20 22 -20 6 0 3 9 -7 20 -10 11 -20 20 -22 20
-2 0 1 -9 7 -20z"/>
<path d="M4783 4500 c-6 -14 -18 -68 -27 -120 -9 -52 -20 -117 -26 -145 -6
-27 -12 -72 -15 -100 l-4 -50 18 60 c10 33 26 110 36 170 9 61 22 115 27 122
5 6 8 29 6 50 -4 37 -4 37 -15 13z"/>
<path d="M4915 4470 c-4 -28 -5 -53 -2 -56 2 -3 7 19 11 47 4 28 5 53 3 56 -3
2 -8 -19 -12 -47z"/>
<path d="M1070 4480 c0 -5 7 -10 15 -10 8 0 15 5 15 10 0 6 -7 10 -15 10 -8 0
-15 -4 -15 -10z"/>
<path d="M5374 4455 c-10 -58 -49 -157 -59 -155 -6 1 -9 10 -8 20 2 13 -8 25
-28 36 -29 14 -32 14 -45 -3 -39 -51 -57 -210 -29 -262 9 -18 19 -31 21 -28 3
3 -2 20 -11 38 -15 28 -16 41 -5 106 15 97 35 145 58 141 11 -2 17 -13 17 -33
0 -17 3 -31 8 -32 20 -7 34 0 49 25 18 32 54 170 45 178 -3 3 -9 -11 -13 -31z"/>
<path d="M1670 4386 c0 -2 7 -7 16 -10 8 -3 12 -2 9 4 -6 10 -25 14 -25 6z"/>
<path d="M4325 4279 c-242 -92 -254 -98 -238 -98 11 -1 30 6 88 30 11 4 94 36
185 70 91 34 172 65 180 70 38 22 -21 2 -215 -72z"/>
<path d="M1100 4332 c-32 -26 -32 -123 0 -157 13 -14 26 -25 30 -25 4 0 6 31
6 69 -1 57 1 67 12 58 9 -7 13 -29 10 -66 -3 -51 -1 -56 17 -53 30 6 36 21 32
77 -4 55 -24 106 -46 113 -8 3 -4 -8 9 -26 14 -19 25 -51 28 -83 6 -59 -12
-62 -21 -4 -6 39 -38 114 -48 115 -4 0 -17 -8 -29 -18z m14 -33 c-3 -5 -10 -7
-15 -3 -5 3 -7 10 -3 15 3 5 10 7 15 3 5 -3 7 -10 3 -15z"/>
<path d="M2660 4320 c0 -19 11 -26 23 -14 8 8 -3 34 -14 34 -5 0 -9 -9 -9 -20z"/>
<path d="M5386 4294 c-17 -37 -17 -55 1 -32 10 13 26 68 20 68 -2 0 -11 -16
-21 -36z"/>
<path d="M3908 4293 c-16 -4 -45 -59 -36 -69 3 -3 8 6 12 20 3 14 19 32 34 40
26 15 23 18 -10 9z"/>
<path d="M2051 4242 c-18 -13 -25 -32 -29 -70 -4 -49 -3 -53 32 -88 30 -30 41
-35 64 -29 34 8 67 39 57 55 -5 8 -10 7 -18 -4 -7 -8 -24 -18 -38 -21 -21 -5
-31 0 -53 25 -28 34 -32 54 -16 94 17 46 81 29 105 -27 11 -25 14 -28 15 -11
0 12 -10 34 -22 50 -12 16 -22 30 -22 31 -1 1 -13 4 -27 8 -17 4 -33 0 -48
-13z"/>
<path d="M2527 4227 c-40 -33 -60 -111 -41 -161 10 -27 79 -21 103 9 42 55 38
135 -8 159 -25 13 -30 13 -54 -7z m68 -58 c8 -46 -15 -92 -43 -87 -19 4 -21
30 -8 88 8 34 7 34 -9 15 -16 -20 -16 -20 -6 2 23 46 57 37 66 -18z"/>
<path d="M3972 4230 c0 -14 2 -19 5 -12 2 6 2 18 0 25 -3 6 -5 1 -5 -13z"/>
<path d="M995 4173 c23 -266 46 -381 38 -188 -4 83 -7 166 -7 185 -1 24 -6 36
-17 38 -14 2 -16 -4 -14 -35z"/>
<path d="M3861 4193 c-1 -23 33 -53 60 -53 9 0 23 8 30 18 13 15 12 16 -4 3
-15 -12 -21 -12 -44 0 -14 7 -29 23 -34 34 -7 19 -8 19 -8 -2z"/>
<path d="M280 4190 c0 -5 5 -10 11 -10 5 0 7 5 4 10 -3 6 -8 10 -11 10 -2 0
-4 -4 -4 -10z"/>
<path d="M4040 4170 c-8 -5 -12 -11 -9 -14 3 -3 14 1 25 9 21 16 8 20 -16 5z"/>
<path d="M2390 4112 l5 -47 3 39 c2 21 0 42 -5 47 -4 4 -6 -13 -3 -39z"/>
<path d="M4007 4123 c-7 -12 -16 -61 -27 -143 -5 -42 -12 -83 -16 -93 -3 -9
-1 -17 5 -17 13 0 25 48 40 164 11 81 10 110 -2 89z"/>
<path d="M1448 4109 c-13 -3 -43 -17 -67 -30 -39 -22 -43 -23 -52 -6 -5 9 -15
17 -20 17 -6 0 -7 -5 -3 -11 4 -7 0 -9 -14 -5 -23 8 -35 -14 -26 -50 4 -16 -5
-43 -30 -88 -29 -53 -36 -74 -36 -121 0 -70 17 -142 43 -177 17 -23 19 -37 14
-113 -3 -48 -7 -88 -9 -90 -30 -27 -88 -55 -114 -55 -44 0 -83 16 -91 37 -9
25 -34 48 -63 59 -14 5 -67 34 -118 64 -88 52 -93 57 -88 83 4 20 2 27 -9 27
-8 0 -15 -4 -15 -10 0 -21 -39 -8 -114 39 -95 60 -92 57 -77 75 17 20 -3 30
-28 14 -23 -14 -37 -8 -141 58 -36 23 -78 45 -94 49 -28 6 -28 5 13 -29 24
-20 48 -36 54 -36 6 0 27 -11 46 -24 102 -67 211 -136 216 -136 3 0 32 -17 65
-37 32 -21 93 -60 135 -86 l76 -48 -41 -56 c-24 -34 -40 -67 -40 -85 0 -28
-22 -39 -35 -18 -3 5 -30 21 -60 35 -72 34 -79 44 -61 87 8 19 11 40 7 47 -6
8 -13 -3 -22 -33 -12 -40 -15 -44 -28 -31 -13 13 -13 17 3 34 10 11 16 28 13
38 -3 14 -7 10 -17 -15 -11 -30 -16 -33 -42 -28 -16 3 -64 30 -106 59 -72 51
-77 56 -76 90 1 26 -2 34 -12 30 -10 -4 -14 4 -14 23 0 22 -3 26 -10 14 -5 -8
-7 -23 -4 -32 9 -30 13 -58 7 -58 -2 0 -19 9 -36 21 -30 20 -30 19 6 -15 20
-20 37 -41 37 -46 0 -6 8 -14 18 -17 33 -13 158 -92 177 -113 10 -11 22 -20
26 -20 5 0 32 -15 61 -33 29 -19 64 -37 78 -40 14 -4 49 -24 79 -47 58 -44
100 -51 139 -25 17 13 26 13 43 4 12 -6 65 -13 118 -16 90 -5 99 -3 141 21 25
14 52 29 60 32 9 3 26 21 40 41 21 31 25 33 31 17 6 -15 8 -12 8 12 1 41 8 46
40 27 l26 -15 -25 22 c-21 19 -25 31 -27 96 -1 41 -9 98 -17 126 -21 73 -30
208 -17 255 10 38 71 110 71 84 0 -9 8 -11 22 -8 15 4 60 -13 142 -55 67 -33
126 -64 131 -68 6 -4 57 -34 115 -66 58 -31 110 -65 117 -73 16 -20 17 -44 1
-35 -8 5 -9 -11 -5 -62 22 -223 38 -644 41 -1049 2 -288 6 -377 15 -345 4 14
6 83 3 153 -4 94 -1 134 8 152 10 19 12 67 7 212 -4 103 -10 358 -14 566 l-6
377 29 0 c29 1 29 1 -10 20 -21 11 -44 24 -50 30 -13 10 -26 17 -241 130 -173
90 -265 143 -265 152 0 15 74 21 95 7 12 -8 49 -32 81 -53 76 -52 268 -136
285 -126 9 6 8 12 -4 25 -10 9 -17 22 -17 28 0 21 29 55 50 59 11 2 16 7 12
13 -16 22 -251 135 -281 135 -17 0 -48 6 -68 14 -52 19 -156 33 -185 25z m185
-45 c9 -3 17 -11 17 -17 0 -17 -212 -17 -217 0 -3 7 8 15 24 19 15 3 33 7 38
9 11 4 111 -4 138 -11z m130 -38 c41 -31 104 -66 144 -80 l31 -11 -29 -32 -29
-33 -45 15 c-24 9 -68 28 -97 43 -43 22 -54 33 -56 55 -3 28 20 67 40 67 5 0
24 -11 41 -24z m-467 -289 c6 1 21 -24 34 -55 19 -44 24 -75 24 -137 -1 -150
-12 -209 -34 -175 -8 12 -10 9 -10 -10 0 -18 -3 -21 -9 -12 -7 11 -16 10 -47
-6 -57 -28 -140 -45 -189 -39 -52 8 -116 37 -109 49 13 20 49 25 76 12 72 -37
210 4 247 74 6 12 18 22 26 22 16 0 19 15 15 104 -2 53 -29 146 -30 104 0 -33
-16 -18 -32 30 -28 82 -30 101 -11 133 l18 30 10 -63 c6 -35 16 -62 21 -61z
m51 1 c-2 -13 -4 -5 -4 17 -1 22 1 32 4 23 2 -10 2 -28 0 -40z m-355 -302 c29
-18 21 -36 -16 -36 -26 0 -41 -8 -61 -32 -24 -28 -28 -29 -42 -16 -13 14 -13
19 2 49 28 55 35 61 69 53 17 -4 38 -12 48 -18z m-77 -148 c23 -22 26 -28 12
-28 -35 0 -87 28 -82 44 17 53 16 52 28 32 7 -11 25 -32 42 -48z"/>
<path d="M5254 4062 c0 -9 7 -22 15 -28 23 -18 -7 -81 -73 -151 -57 -62 -58
-63 -35 -73 37 -15 100 -62 120 -90 12 -16 20 -45 21 -82 2 -41 5 -53 11 -42
13 23 1 108 -19 139 -13 20 -13 25 -3 25 8 0 -7 14 -33 30 -27 17 -55 30 -63
30 -25 0 -17 17 31 65 51 52 76 101 67 133 -4 18 -1 22 20 22 14 0 29 5 32 10
4 7 -2 9 -19 4 -17 -4 -35 0 -50 9 -22 15 -23 14 -22 -1z"/>
<path d="M3715 4056 c-11 -7 -96 -42 -190 -76 -93 -34 -224 -82 -290 -107 -66
-25 -174 -64 -240 -88 -66 -23 -131 -47 -145 -53 -70 -29 -162 -62 -175 -62
-13 0 -15 -32 -15 -225 0 -124 2 -225 4 -225 2 0 9 73 16 163 13 174 29 258
50 265 7 3 10 0 7 -6 -7 -10 23 -22 56 -22 21 0 77 37 77 51 0 5 -8 9 -17 9
-26 0 6 19 125 70 26 12 56 25 67 30 115 51 639 250 657 250 13 0 15 -17 11
-107 -3 -60 -11 -141 -17 -181 -11 -64 -11 -71 2 -58 18 17 41 163 42 256 0
74 8 110 22 110 14 0 0 -136 -38 -368 -8 -52 -51 -102 -87 -102 -14 0 -27 6
-30 14 -7 18 1 26 29 26 14 0 28 9 35 23 9 18 9 20 -2 10 -19 -19 -50 -16 -84
7 -16 11 -37 20 -46 20 -27 0 -51 -75 -54 -168 -2 -80 -1 -84 27 -113 16 -16
40 -32 54 -35 43 -11 29 -74 -37 -161 -21 -29 -39 -57 -39 -62 0 -6 18 -22 39
-36 53 -33 99 -102 132 -199 28 -81 55 -116 89 -116 21 0 30 20 29 63 0 25 -2
28 -8 13 -9 -23 -15 -15 -30 42 -29 106 -82 183 -142 204 -30 10 -30 33 2 67
10 11 19 23 19 27 0 4 7 15 15 24 15 17 44 128 38 146 -2 6 -17 9 -33 6 -23
-3 -36 3 -64 32 -21 20 -36 29 -36 21 0 -7 5 -17 10 -20 16 -10 12 -25 -5 -18
-50 18 -59 133 -20 251 7 21 43 -8 55 -44 15 -44 49 -58 86 -35 44 27 71 91
104 238 20 91 26 196 14 241 -7 25 -39 29 -69 8z m-65 -713 c0 -5 -7 -17 -15
-27 -15 -20 -20 -10 -9 18 6 16 24 22 24 9z m-49 -131 c-8 -15 -17 -34 -21
-42 -8 -18 -57 -37 -67 -27 -4 4 15 30 42 57 52 53 66 57 46 12z m35 -159 c54
-49 84 -107 100 -195 5 -31 3 -38 -10 -38 -18 0 -26 14 -56 105 -13 39 -41 94
-63 123 -40 55 -29 57 29 5z"/>
<path d="M4695 4020 c-4 -28 -5 -53 -2 -56 2 -3 7 19 11 47 4 28 5 53 3 56 -3
2 -8 -19 -12 -47z"/>
<path d="M4681 3924 c0 -11 3 -14 6 -6 3 7 2 16 -1 19 -3 4 -6 -2 -5 -13z"/>
<path d="M1978 3876 c-2 -20 0 -36 4 -36 13 0 21 51 10 62 -6 6 -11 -2 -14
-26z"/>
<path d="M2061 3882 c-45 -36 -37 -139 13 -181 9 -8 16 -25 16 -40 0 -14 5
-33 10 -41 7 -11 10 -4 10 28 0 28 4 42 13 42 49 0 65 111 24 171 -27 40 -53
46 -86 21z m79 -54 c22 -49 26 -92 8 -86 -6 2 -17 20 -23 39 -15 43 -37 44
-46 1 -10 -49 -17 -49 -24 1 -10 64 0 87 36 87 26 0 33 -6 49 -42z"/>
<path d="M2543 3850 c-29 -12 -41 -37 -49 -101 -4 -39 -1 -65 11 -94 16 -37
18 -38 31 -21 7 11 11 23 8 27 -3 5 0 9 5 9 6 0 11 -5 11 -10 0 -6 13 4 29 22
19 22 32 50 36 80 6 42 4 50 -18 72 -28 28 -31 29 -64 16z m55 -77 c3 -44 0
-53 -20 -67 -20 -15 -24 -15 -34 -1 -6 8 -14 12 -17 8 -11 -10 -20 26 -13 52
8 33 43 67 64 63 13 -2 18 -16 20 -55z"/>
<path d="M3960 3820 c-3 -53 0 -73 17 -92 34 -38 75 -17 113 58 23 45 25 54 8
54 -7 0 -14 -12 -15 -26 -2 -35 -34 -78 -61 -82 -24 -4 -38 21 -52 88 l-8 35
-2 -35z"/>
<path d="M4025 3804 c-15 -19 -25 -37 -22 -40 6 -6 57 54 57 67 0 15 -7 10
-35 -27z"/>
<path d="M2400 3754 c0 -14 4 -23 10 -19 6 3 10 15 10 26 0 10 -4 19 -10 19
-5 0 -10 -12 -10 -26z"/>
<path d="M197 3746 c-4 -10 -5 -21 -2 -24 9 -9 17 6 13 25 -3 17 -4 17 -11 -1z"/>
<path d="M237 3733 c-4 -3 -7 -13 -7 -22 1 -13 3 -13 11 2 11 19 8 33 -4 20z"/>
<path d="M277 3723 c-4 -3 -7 -15 -7 -26 0 -25 9 -17 15 12 4 22 2 25 -8 14z"/>
<path d="M317 3675 c-4 -8 -2 -17 3 -20 6 -4 10 3 10 14 0 25 -6 27 -13 6z"/>
<path d="M4642 3670 c0 -14 2 -19 5 -12 2 6 2 18 0 25 -3 6 -5 1 -5 -13z"/>
<path d="M2400 3666 c0 -9 5 -16 10 -16 6 0 10 4 10 9 0 6 -4 13 -10 16 -5 3
-10 -1 -10 -9z"/>
<path d="M420 3600 c0 -5 5 -10 11 -10 5 0 7 5 4 10 -3 6 -8 10 -11 10 -2 0
-4 -4 -4 -10z"/>
<path d="M3835 3600 c-4 -6 3 -10 14 -10 25 0 27 6 6 13 -8 4 -17 2 -20 -3z"/>
<path d="M4031 3568 c-19 -22 -52 -48 -74 -60 -38 -19 -39 -21 -34 -59 7 -50
30 -87 65 -101 15 -7 29 -13 31 -15 3 -2 -16 -25 -41 -51 -47 -47 -142 -191
-133 -200 3 -3 6 -3 8 -1 2 2 23 35 47 73 25 38 69 96 100 127 30 32 54 63 52
69 -2 5 -16 10 -31 10 -32 0 -66 33 -76 72 -6 22 -2 30 22 45 35 22 69 59 89
96 22 41 14 39 -25 -5z"/>
<path d="M3551 3584 c0 -11 3 -14 6 -6 3 7 2 16 -1 19 -3 4 -6 -2 -5 -13z"/>
<path d="M450 3570 c0 -11 2 -20 4 -20 2 0 6 9 9 20 3 11 1 20 -4 20 -5 0 -9
-9 -9 -20z"/>
<path d="M4891 3573 c30 -36 69 -75 69 -69 0 9 -42 69 -55 78 -19 14 -28 8
-14 -9z"/>
<path d="M500 3560 c0 -5 5 -10 11 -10 5 0 7 5 4 10 -3 6 -8 10 -11 10 -2 0
-4 -4 -4 -10z"/>
<path d="M3786 3554 c-14 -36 -6 -89 15 -102 12 -7 23 -11 26 -8 9 9 -6 38
-16 31 -14 -8 -23 31 -16 65 7 32 1 41 -9 14z"/>
<path d="M531 3544 c0 -11 3 -14 6 -6 3 7 2 16 -1 19 -3 4 -6 -2 -5 -13z"/>
<path d="M1426 3546 c6 -17 34 -30 34 -16 0 5 -9 14 -20 20 -16 8 -18 8 -14
-4z"/>
<path d="M3543 3510 c0 -30 2 -43 4 -27 2 15 2 39 0 55 -2 15 -4 2 -4 -28z"/>
<path d="M3885 3527 c4 -15 -1 -32 -15 -50 -12 -15 -17 -27 -11 -27 14 0 41
53 41 80 0 11 -5 20 -10 20 -6 0 -8 -10 -5 -23z"/>
<path d="M554 3524 c3 -9 6 -18 6 -20 0 -3 5 -2 10 1 16 10 12 35 -6 35 -11 0
-14 -5 -10 -16z"/>
<path d="M597 3523 c-4 -3 -7 -13 -7 -22 1 -13 3 -13 11 2 11 19 8 33 -4 20z"/>
<path d="M687 3453 c-2 -10 -8 -26 -12 -35 -4 -10 -3 -18 3 -18 6 0 13 14 17
31 7 33 1 51 -8 22z"/>
<path d="M725 3436 c-3 -9 -7 -23 -10 -31 -2 -8 -1 -15 4 -15 10 0 25 50 17
58 -3 2 -8 -3 -11 -12z"/>
<path d="M752 3400 c-6 -11 -8 -21 -3 -25 5 -3 13 4 16 16 9 28 2 33 -13 9z"/>
<path d="M781 3392 c-7 -13 -11 -28 -8 -35 2 -7 9 -2 16 11 7 13 11 28 8 35
-2 7 -9 2 -16 -11z"/>
<path d="M811 3384 c0 -11 3 -14 6 -6 3 7 2 16 -1 19 -3 4 -6 -2 -5 -13z"/>
<path d="M1392 3240 c0 -19 2 -27 5 -17 2 9 2 25 0 35 -3 9 -5 1 -5 -18z"/>
<path d="M5010 3251 c0 -5 7 -11 14 -14 10 -4 13 -1 9 9 -6 15 -23 19 -23 5z"/>
<path d="M5057 3159 c5 -47 -7 -127 -35 -218 -11 -35 -13 -56 -6 -58 19 -6
119 -84 136 -106 l18 -22 0 26 c0 15 7 29 15 33 35 13 14 44 -64 96 l-79 52
14 45 c15 51 17 147 4 178 -6 13 -7 5 -3 -26z m-1 -245 c-3 -9 -6 -18 -6 -20
0 -2 -4 -4 -9 -4 -5 0 -7 9 -4 20 3 11 10 20 15 20 6 0 7 -7 4 -16z m81 -39
l28 -25 -27 13 c-16 6 -28 16 -28 20 0 5 -4 5 -10 2 -5 -3 -10 -1 -10 4 0 18
17 13 47 -14z m23 -60 c0 -12 -29 -3 -34 10 -4 13 -2 14 14 5 11 -6 20 -13 20
-15z"/>
<path d="M2331 3154 c0 -11 3 -14 6 -6 3 7 2 16 -1 19 -3 4 -6 -2 -5 -13z"/>
<path d="M4305 2970 c-8 -13 5 -13 25 0 13 8 13 10 -2 10 -9 0 -20 -4 -23 -10z"/>
<path d="M4870 2870 c0 -10 59 -44 65 -38 2 2 -12 13 -31 26 -19 12 -34 18
-34 12z"/>
<path d="M4428 2818 c-15 -24 -40 -89 -35 -94 1 -1 17 24 35 57 31 56 31 85 0
37z"/>
<path d="M4990 2809 c0 -5 5 -7 10 -4 6 3 10 8 10 11 0 2 -4 4 -10 4 -5 0 -10
-5 -10 -11z"/>
<path d="M4358 2753 c-23 -53 -33 -98 -21 -90 6 4 13 17 16 29 2 13 12 40 21
61 9 20 13 37 8 37 -4 0 -15 -17 -24 -37z"/>
<path d="M4928 2733 c-31 -58 -61 -148 -55 -166 2 -6 14 19 26 58 13 38 34 89
48 112 14 24 21 43 16 43 -6 0 -21 -21 -35 -47z"/>
<path d="M5026 2741 c-10 -11 -13 -21 -7 -25 5 -4 12 -2 16 4 3 5 10 10 16 10
17 0 9 -26 -16 -50 -23 -22 -25 -22 -25 -4 -1 19 -1 19 -12 0 -9 -15 -7 -22 7
-32 23 -17 41 -9 66 33 18 28 20 39 10 59 -13 29 -32 31 -55 5z"/>
<path d="M838 2683 c7 -3 16 -2 19 1 4 3 -2 6 -13 5 -11 0 -14 -3 -6 -6z"/>
<path d="M747 2634 c-4 -4 -7 -14 -7 -23 0 -11 3 -12 11 -4 6 6 10 16 7 23 -2
6 -7 8 -11 4z"/>
<path d="M931 2624 c0 -11 3 -14 6 -6 3 7 2 16 -1 19 -3 4 -6 -2 -5 -13z"/>
<path d="M5191 2615 c-1 -11 -4 -31 -6 -45 l-6 -25 11 25 c6 13 9 33 7 45 -4
19 -4 19 -6 0z"/>
<path d="M943 2550 c0 -30 2 -43 4 -27 2 15 2 39 0 55 -2 15 -4 2 -4 -28z"/>
<path d="M825 2549 c3 -9 10 -45 15 -80 l9 -64 -3 68 c-2 38 -9 74 -16 80 -8
9 -10 8 -5 -4z"/>
<path d="M893 2480 c0 -25 2 -35 4 -22 2 12 2 32 0 45 -2 12 -4 2 -4 -23z"/>
<path d="M5163 2495 c-3 -9 -3 -18 -1 -21 3 -3 8 4 11 16 6 23 -1 27 -10 5z"/>
<path d="M943 2420 c0 -36 2 -50 4 -32 2 17 2 47 0 65 -2 17 -4 3 -4 -33z"/>
<path d="M4765 2435 c-25 -22 -34 -35 -24 -35 15 0 47 30 63 58 11 18 5 15
-39 -23z"/>
<path d="M541 2424 c0 -11 3 -14 6 -6 3 7 2 16 -1 19 -3 4 -6 -2 -5 -13z"/>
<path d="M4961 2430 c-32 -7 -83 -92 -79 -129 2 -14 8 -25 15 -24 7 2 22 -11
34 -28 19 -27 27 -30 60 -27 23 2 39 -1 39 -7 0 -16 -29 -56 -79 -107 -25 -27
-40 -48 -34 -48 6 0 38 29 71 65 33 36 66 65 74 65 8 0 21 -18 28 -40 7 -22
29 -57 47 -78 l34 -37 -35 65 c-63 117 -53 199 32 256 27 19 29 23 14 29 -12
5 -27 -5 -53 -35 -37 -43 -49 -43 -49 -1 -1 54 -62 96 -119 81z m70 -57 c27
-16 47 -43 31 -43 -12 1 -58 29 -48 30 6 0 1 7 -10 15 -26 20 -8 19 27 -2z m5
-49 c21 -15 41 -28 42 -29 2 -2 1 -17 -3 -34 -7 -33 -31 -41 -53 -19 -8 8 -18
9 -34 1 -20 -9 -26 -7 -41 13 -15 21 -16 24 -2 24 10 0 15 9 15 28 0 50 19 54
76 16z"/>
<path d="M888 2410 c-7 -24 -3 -38 8 -28 3 4 4 17 2 30 l-3 23 -7 -25z"/>
<path d="M745 2410 c-3 -6 1 -7 9 -4 18 7 21 14 7 14 -6 0 -13 -4 -16 -10z"/>
<path d="M2491 2354 c0 -11 3 -14 6 -6 3 7 2 16 -1 19 -3 4 -6 -2 -5 -13z"/>
<path d="M5245 2356 c11 -8 25 -16 31 -16 16 0 62 -52 74 -85 25 -67 30 -122
14 -170 -20 -58 -57 -80 -123 -71 -43 5 -45 5 -26 -10 30 -24 100 -13 135 21
55 53 59 140 10 235 -23 44 -77 95 -110 105 -24 7 -24 7 -5 -9z"/>
<path d="M876 2319 c-7 -35 -6 -124 1 -97 2 9 17 21 34 27 16 5 29 15 29 20 0
14 -17 14 -25 1 -15 -24 -27 -8 -22 30 6 48 -8 63 -17 19z"/>
<path d="M561 2294 c0 -11 3 -14 6 -6 3 7 2 16 -1 19 -3 4 -6 -2 -5 -13z"/>
<path d="M825 2299 c-4 -6 -5 -12 -2 -15 2 -3 7 2 10 11 7 17 1 20 -8 4z"/>
<path d="M5166 2284 c-9 -8 -16 -20 -16 -26 0 -6 1 -9 3 -7 1 2 11 14 21 27
22 25 16 30 -8 6z"/>
<path d="M4657 2272 c-19 -20 -37 -66 -37 -92 0 -16 6 -18 33 -15 33 4 77 44
77 71 0 48 -43 70 -73 36z m25 -44 c-7 -7 -12 -8 -12 -2 0 14 12 26 19 19 2
-3 -1 -11 -7 -17z"/>
<path d="M815 2205 c9 -65 24 -81 18 -18 -3 26 -10 53 -15 58 -7 7 -8 -7 -3
-40z"/>
<path d="M5146 2214 c-6 -25 6 -84 17 -84 3 0 -2 73 -7 100 -1 8 -6 1 -10 -16z"/>
<path d="M4530 2200 c-7 -17 -10 -33 -8 -36 3 -2 11 9 18 26 7 17 10 33 8 36
-3 2 -11 -9 -18 -26z"/>
<path d="M5304 2205 c3 -11 7 -30 11 -42 9 -31 -11 -62 -48 -78 l-32 -14 31
-1 c17 0 37 6 43 13 20 25 23 72 7 107 -9 19 -14 26 -12 15z"/>
<path d="M881 2184 c0 -11 3 -14 6 -6 3 7 2 16 -1 19 -3 4 -6 -2 -5 -13z"/>
<path d="M4481 2184 c0 -11 3 -14 6 -6 3 7 2 16 -1 19 -3 4 -6 -2 -5 -13z"/>
<path d="M582 2160 c0 -14 2 -19 5 -12 2 6 2 18 0 25 -3 6 -5 1 -5 -13z"/>
<path d="M4949 2153 l-24 -28 28 24 c25 23 32 31 24 31 -2 0 -14 -12 -28 -27z"/>
<path d="M4530 2140 c0 -5 7 -10 15 -10 8 0 15 5 15 10 0 6 -7 10 -15 10 -8 0
-15 -4 -15 -10z"/>
<path d="M1754 2075 c26 -19 42 -19 26 0 -7 8 -20 15 -29 15 -13 -1 -13 -3 3
-15z"/>
<path d="M4683 2017 c25 -6 46 -6 60 0 17 8 9 10 -38 10 -58 0 -59 0 -22 -10z"/>
<path d="M2053 1880 c0 -41 2 -58 4 -37 2 20 2 54 0 75 -2 20 -4 3 -4 -38z"/>
<path d="M2264 1740 c0 -63 1 -89 3 -57 2 31 2 83 0 115 -2 31 -3 5 -3 -58z"/>
<path d="M896 1725 c3 -44 10 -84 15 -89 10 -11 2 79 -12 134 -6 25 -7 11 -3
-45z"/>
<path d="M1990 1785 c-7 -9 -11 -17 -9 -20 3 -2 10 5 17 15 14 24 10 26 -8 5z"/>
<path d="M1790 1769 c0 -13 5 -31 10 -39 7 -11 8 -5 4 20 -8 43 -14 51 -14 19z"/>
<path d="M1925 1753 c-40 -39 8 -243 64 -273 18 -9 16 -4 -9 32 -53 76 -73
202 -38 246 15 18 2 15 -17 -5z"/>
<path d="M1967 1730 c-11 -40 -8 -66 14 -126 22 -58 88 -143 89 -114 0 8 -9
21 -21 28 -29 18 -60 96 -68 172 -5 50 -8 59 -14 40z"/>
<path d="M2723 1717 c10 -7 24 -30 31 -52 14 -39 13 -49 -18 -140 -4 -11 2 -4
13 15 11 19 23 52 26 73 7 40 25 42 25 2 0 -13 5 -27 11 -31 14 -8 8 23 -15
78 -20 46 -42 68 -69 68 -19 0 -19 -1 -4 -13z"/>
<path d="M1480 1640 c0 -5 5 -10 10 -10 6 0 10 5 10 10 0 6 -4 10 -10 10 -5 0
-10 -4 -10 -10z"/>
<path d="M1006 1605 c-14 -11 -16 -15 -5 -15 8 0 23 7 33 15 14 11 16 15 5 15
-8 0 -23 -7 -33 -15z"/>
<path d="M1861 1560 c29 -46 29 -45 29 -32 0 6 -12 24 -26 39 l-26 28 23 -35z"/>
<path d="M2801 1563 c-1 -6 -4 -20 -7 -30 -5 -17 -5 -17 6 0 6 10 9 23 6 30
-3 9 -5 9 -5 0z"/>
<path d="M2934 1528 c-4 -7 -3 -8 5 -4 6 4 23 0 36 -8 21 -14 25 -14 25 -2 0
24 -53 36 -66 14z"/>
<path d="M1810 1520 c0 -5 5 -10 10 -10 6 0 10 5 10 10 0 6 -4 10 -10 10 -5 0
-10 -4 -10 -10z"/>
<path d="M1897 1485 c3 -16 9 -37 14 -45 15 -27 10 11 -6 45 l-14 30 6 -30z"/>
<path d="M2263 1445 c7 -13 13 -760 6 -760 -3 0 -43 32 -89 70 -115 97 -217
180 -265 216 l-40 31 36 -33 c19 -19 67 -62 105 -96 l69 -61 13 -94 c7 -51 12
-114 12 -140 0 -26 5 -50 11 -54 7 -4 9 0 5 12 -7 22 -11 233 -4 239 2 2 42
-31 87 -75 69 -65 87 -78 102 -70 10 6 20 10 23 10 3 0 6 -39 6 -86 0 -54 4
-83 10 -79 6 4 8 38 5 86 l-6 81 30 -4 c22 -2 52 10 105 42 42 24 73 46 71 48
-3 3 -10 0 -17 -5 -7 -6 -40 -25 -72 -42 -46 -24 -61 -28 -68 -19 -6 10 -8 10
-8 -1 0 -11 -3 -11 -15 -1 -8 7 -15 19 -15 26 0 8 -7 14 -15 14 -8 0 -15 -8
-15 -19 0 -10 -6 -24 -14 -30 -11 -9 -15 -7 -20 11 -3 13 -9 192 -12 398 -4
235 -10 379 -17 385 -7 7 -8 7 -4 0z"/>
<path d="M2608 1413 c7 -3 16 -2 19 1 4 3 -2 6 -13 5 -11 0 -14 -3 -6 -6z"/>
<path d="M1810 1057 c0 -2 14 -16 30 -30 17 -15 30 -23 30 -18 0 5 -13 19 -30
31 -16 12 -30 20 -30 17z"/>
<path d="M2586 751 c-17 -19 -17 -19 3 -14 11 3 26 11 32 19 19 23 -15 18 -35
-5z"/>
<path d="M2586 657 c-10 -88 -4 -259 8 -247 10 10 13 40 17 200 3 119 -14 152
-25 47z"/>
<path d="M2110 466 c0 -9 -11 -22 -25 -28 -14 -6 -25 -15 -25 -20 0 -11 4 -10
45 9 39 19 42 25 20 43 -12 10 -15 9 -15 -4z"/>
<path d="M2630 424 c0 -8 43 -43 54 -44 5 0 -1 11 -14 25 -22 24 -40 32 -40
19z"/>
</g>
</svg>
